# xmcd
#
# Track frame offsets:
#	150
#	25285
#	38510
#	56889
#	68366
#	86134
#	98527
#	114419
#	132392
#	152846
#
# Disc length: 2219 seconds
#
# Revision: 0
# Processed by: cddbd v1.5.2PL0 Copyright (c) Steve Scherf et al.
# Submitted via: EZCDAudioConverter 7.0.6.1
#
DISCID=7908a90a
DTITLE=Maranatha 3: Rejoice In The Lord
DYEAR=1900
DGENRE=
TTITLE0=Mustard Seed Faith - Happy In Jesus
TTITLE1=Becky - God Don't Care Who You Are
TTITLE2=Hosanna - Why Art Thou Disquieted
TTITLE3=Ernie Rettino - I'll Never Leave You
TTITLE4=Karen Lafferty - Plan Of Love
TTITLE5=Blessed Hope - I'll Never Be Lonely
TTITLE6=Bob and Steve - Psalm 42
TTITLE7=Tom Stipe (Country Faith) - Big City Blues
TTITLE8=Mustard Seed Faith - Rest
TTITLE9=Chuck Butler (Country Faith) - Nursery Rhyme
EXTD=
EXTT0=
EXTT1=
EXTT2=
EXTT3=
EXTT4=
EXTT5=
EXTT6=
EXTT7=
EXTT8=
EXTT9=
PLAYORDER=
